<?xml version="1.0" encoding="UTF-8"?>
<svg id="Layer_1" xmlns="http://www.w3.org/2000/svg" version="1.1" viewBox="0 0 80 80">
  <!-- Generator: Adobe Illustrator 29.8.1, SVG Export Plug-In . SVG Version: 2.1.1 Build 2)  -->
  <defs>
    <style>
      .st0 {
        font-family: HelveticaNeue-Bold, 'Helvetica Neue';
        font-size: 5px;
        font-weight: 700;
        isolation: isolate;
      }
    </style>
  </defs>
  <path d="M27,67h34c1.1,0,2-.9,2-2V15c0-1.1-.9-2-2-2H27c-5.52,0-10,4.48-10,10v34c0,5.52,4.48,10,10,10ZM21,57v-26c1.73,1.3,3.84,2,6,2h3v30h-3c-3.31,0-6-2.69-6-6ZM34,63v-30h25v30h-25ZM59,17.35v11.3c-3.12-1.12-4.75-4.55-3.63-7.67.61-1.69,1.94-3.03,3.63-3.63ZM27,17h26c-.24.32-.45.65-.65,1h-20.35c-1.1,0-2,.9-2,2s.9,2,2,2h19.06c0,.33-.06.66-.06,1s0,.67.06,1h-13.56c-1.1,0-2,.9-2,2s.9,2,2,2h14c.26,0,.52-.05.76-.15.22.4.47.78.74,1.15h-26c-3.31,0-6-2.69-6-6s2.69-6,6-6Z"/>
  <text class="st0" transform="translate(0 95)"><tspan x="0" y="0">Created by Weltenraser</tspan></text>
  <text class="st0" transform="translate(0 100)"><tspan x="0" y="0">from the Noun Project</tspan></text>
</svg>