<?xml version="1.0" encoding="UTF-8"?>
<svg id="Layer_1" xmlns="http://www.w3.org/2000/svg" version="1.1" viewBox="0 0 80 80">
  <!-- Generator: Adobe Illustrator 29.8.1, SVG Export Plug-In . SVG Version: 2.1.1 Build 2)  -->
  <defs>
    <style>
      .st0 {
        font-family: HelveticaNeue-Bold, 'Helvetica Neue';
        font-size: 5px;
        font-weight: 700;
        isolation: isolate;
      }
    </style>
  </defs>
  <path d="M24.09,13.28c.78-.78.78-2.05,0-2.83s-2.05-.78-2.83,0l-5.65,5.65h0l-5.66,5.66c-.78.78-.78,2.05,0,2.83s2.05.78,2.83,0l4.22-4.24,4.24,4.24-5.64,5.66c-.78.78-.78,2.05,0,2.83.78.78,2.05.78,2.83,0l.71-.71,27.58,27.58c.78.78,2.05.78,2.83,0h0s3.54-3.54,3.54-3.54l8.49,8.49c.78.78,2.05.78,2.83,0,.78-.78.78-2.05,0-2.83l-8.49-8.49,3.53-3.58c.78-.78.78-2.05,0-2.83h0s-21.92-21.87-21.92-21.87h0l-5.66-5.66.71-.71c.78-.78.78-2.05,0-2.83s-2.05-.78-2.83,0l-5.66,5.66-4.24-4.24,4.24-4.24ZM51.67,52.16h0l-3.54,3.54-26.13-26.16,7-7.07,4.24,4.24-2.12,2.12c-.78.8-.77,2.07.02,2.86.8.78,2.07.77,2.86-.02l2.12-2.12,4.24,4.24-2.13,2.12c-.78.78-.78,2.05,0,2.83.78.78,2.05.78,2.83,0l2.12-2.12,4.24,4.24-2.12,2.15c-.78.78-.78,2.05,0,2.83.78.78,2.05.78,2.83,0h0l2.12-2.12,5,5-3.58,3.45Z"/>
  <text class="st0" transform="translate(0 95)"><tspan x="0" y="0">Created by Weltenraser</tspan></text>
  <text class="st0" transform="translate(0 100)"><tspan x="0" y="0">from the Noun Project</tspan></text>
</svg>