<?xml version="1.0" encoding="UTF-8"?>
<svg id="Layer_1" xmlns="http://www.w3.org/2000/svg" version="1.1" viewBox="0 0 80 80">
  <!-- Generator: Adobe Illustrator 29.8.1, SVG Export Plug-In . SVG Version: 2.1.1 Build 2)  -->
  <defs>
    <style>
      .st0 {
        font-family: HelveticaNeue-Bold, 'Helvetica Neue';
        font-size: 5px;
        font-weight: 700;
        isolation: isolate;
      }
    </style>
  </defs>
  <path d="M40,66c5.52,0,10-4.48,10-10v-4c6.9-5.52,8.01-15.59,2.49-22.49-5.52-6.9-15.59-8.01-22.49-2.49-6.9,5.52-8.01,15.59-2.49,22.49.74.92,1.57,1.75,2.49,2.49v4c0,5.52,4.48,10,10,10ZM40,62c-2.54,0-4.8-1.61-5.65-4h11.3c-.85,2.39-3.11,4-5.65,4ZM38.61,40h2.78l-1.39,2.23-1.39-2.23ZM28,39.5c0-6.63,5.37-12,11.99-12.01,6.63,0,12,5.37,12.01,11.99,0,3.93-1.92,7.61-5.14,9.85l-.86.6v4.06h-4v-7.43l4.7-7.51c.59-.94.3-2.17-.64-2.76-.32-.2-.69-.3-1.06-.3h-10c-1.1,0-2,.89-2,2,0,.38.1.74.3,1.06l4.7,7.51v7.43h-4v-4.06l-.86-.6c-3.22-2.24-5.14-5.92-5.14-9.84Z"/>
  <path d="M40,11c-1.1,0-2,.9-2,2v6c0,1.1.9,2,2,2s2-.9,2-2v-6c0-1.1-.9-2-2-2Z"/>
  <path d="M23.74,26.57c.78.78,2.05.78,2.83,0s.78-2.05,0-2.83l-4.24-4.24c-.78-.78-2.05-.78-2.83,0s-.78,2.05,0,2.83l4.24,4.24Z"/>
  <path d="M13,42h6c1.1,0,2-.9,2-2s-.9-2-2-2h-6c-1.1,0-2,.9-2,2s.9,2,2,2Z"/>
  <path d="M61,42h6c1.1,0,2-.9,2-2s-.9-2-2-2h-6c-1.1,0-2,.9-2,2s.9,2,2,2Z"/>
  <path d="M60.51,22.32c.78-.78.78-2.05,0-2.83-.78-.78-2.05-.78-2.83,0h0l-4.24,4.24c-.78.78-.78,2.05,0,2.83.78.78,2.05.78,2.83,0h0l4.24-4.24Z"/>
  <text class="st0" transform="translate(0 95)"><tspan x="0" y="0">Created by Weltenraser</tspan></text>
  <text class="st0" transform="translate(0 100)"><tspan x="0" y="0">from the Noun Project</tspan></text>
</svg>