<?xml version="1.0" encoding="UTF-8"?>
<svg id="Layer_1" xmlns="http://www.w3.org/2000/svg" version="1.1" viewBox="0 0 80 80">
  <!-- Generator: Adobe Illustrator 29.8.1, SVG Export Plug-In . SVG Version: 2.1.1 Build 2)  -->
  <defs>
    <style>
      .st0 {
        font-family: HelveticaNeue-Bold, 'Helvetica Neue';
        font-size: 5px;
        font-weight: 700;
        isolation: isolate;
      }
    </style>
  </defs>
  <path d="M18.15,66.85c2.39,0,4.68-.95,6.36-2.64L57.75,31l1.77,1.77c.78.78,2.05.78,2.83,0,.78-.78.78-2.05,0-2.83l-1.77-1.77h0l-12.73-12.75h0l-1.77-1.77c-.78-.78-2.05-.78-2.83,0s-.78,2.05,0,2.83l1.75,1.77-23,23c-.29.17-.54.42-.71.71l-9.5,9.5c-3.51,3.52-3.51,9.22,0,12.73,1.69,1.68,3.97,2.63,6.35,2.63v.03ZM54.92,28.15l-12.85,12.85h-14.14l19.92-19.92,3.54,3.54,3.53,3.53ZM14.62,54.31l9.31-9.31h14.14l-16.38,16.38c-1.92,1.99-5.08,2.04-7.07.12-1.99-1.92-2.04-5.08-.12-7.07.04-.04.08-.08.12-.12Z"/>
  <path d="M60.24,41c-1.24,2.32-5.24,10-5.24,13,0,3.87,3.13,7,7,7s7-3.13,7-7h0c0-3-4-10.68-5.24-13-.52-.97-1.74-1.33-2.71-.81-.34.19-.62.47-.81.81ZM65,54c0,1.66-1.34,3-3,3s-3-1.34-3-3c0-1,1.36-4.29,3-7.63,1.64,3.34,3,6.63,3,7.63Z"/>
  <text class="st0" transform="translate(0 95)"><tspan x="0" y="0">Created by Weltenraser</tspan></text>
  <text class="st0" transform="translate(0 100)"><tspan x="0" y="0">from the Noun Project</tspan></text>
</svg>