<?xml version="1.0" encoding="UTF-8"?>
<svg id="Layer_1" xmlns="http://www.w3.org/2000/svg" version="1.1" viewBox="0 0 80 80">
  <!-- Generator: Adobe Illustrator 29.8.1, SVG Export Plug-In . SVG Version: 2.1.1 Build 2)  -->
  <defs>
    <style>
      .st0 {
        font-family: HelveticaNeue-Bold, 'Helvetica Neue';
        font-size: 5px;
        font-weight: 700;
        isolation: isolate;
      }
    </style>
  </defs>
  <path d="M67.9,28.4c-.04-.11-.08-.22-.14-.33l-.06-.07c-.08-.13-.17-.26-.28-.37h0c-.12-.13-.27-.24-.42-.33h0l-26-14.91c-.62-.36-1.38-.36-2,0l-26,14.87c-.96.55-1.29,1.77-.74,2.73.18.31.43.56.74.74l9,5.14v20.13c0,5.71,15,6,18,6s18-.29,18-6v-20.12l6-3.43v31.55c0,1.1.9,2,2,2s2-.9,2-2V29c0-.16-.02-.32-.06-.48l-.04-.12ZM54,55.66c-1,.86-5.94,2.34-14,2.34s-13-1.48-14-2.34v-17.49l13,7.44c.62.36,1.38.36,2,0l13-7.44v17.49ZM40,41.57l-22-12.57,22-12.57,22,12.57-22,12.57Z"/>
  <text class="st0" transform="translate(0 95)"><tspan x="0" y="0">Created by Weltenraser</tspan></text>
  <text class="st0" transform="translate(0 100)"><tspan x="0" y="0">from the Noun Project</tspan></text>
</svg>