<?xml version="1.0" encoding="UTF-8"?>
<svg id="Layer_1" xmlns="http://www.w3.org/2000/svg" version="1.1" viewBox="0 0 80 80">
  <!-- Generator: Adobe Illustrator 29.8.1, SVG Export Plug-In . SVG Version: 2.1.1 Build 2)  -->
  <defs>
    <style>
      .st0 {
        font-family: HelveticaNeue-Bold, 'Helvetica Neue';
        font-size: 5px;
        font-weight: 700;
        isolation: isolate;
      }
    </style>
  </defs>
  <path d="M59.63,35.11c-.34-.68-1.04-1.11-1.8-1.11h-12.46l2.78-21.28c.15-1.09-.62-2.1-1.71-2.25-.72-.1-1.43.2-1.87.78l-24,31.54c-.67.88-.5,2.13.38,2.8.35.27.78.41,1.22.41h12.46l-2.78,21.28c-.15,1.09.62,2.1,1.71,2.25.72.1,1.43-.2,1.87-.78l24-31.54c.46-.61.54-1.42.2-2.1ZM36.79,60.36l2.1-16.1c.14-1.1-.63-2.1-1.72-2.24-.09-.01-.18-.02-.28-.02h-10.69l17-22.36-2.1,16.1c-.14,1.1.63,2.1,1.72,2.24.09.01.18.02.28.02h10.7l-17.01,22.36Z"/>
  <text class="st0" transform="translate(0 95)"><tspan x="0" y="0">Created by Weltenraser</tspan></text>
  <text class="st0" transform="translate(0 100)"><tspan x="0" y="0">from the Noun Project</tspan></text>
</svg>