<?xml version="1.0" encoding="UTF-8"?>
<svg id="Layer_1" xmlns="http://www.w3.org/2000/svg" version="1.1" viewBox="0 0 80 80">
  <!-- Generator: Adobe Illustrator 29.8.1, SVG Export Plug-In . SVG Version: 2.1.1 Build 2)  -->
  <defs>
    <style>
      .st0 {
        font-family: HelveticaNeue-Bold, 'Helvetica Neue';
        font-size: 5px;
        font-weight: 700;
        isolation: isolate;
      }
    </style>
  </defs>
  <path d="M61.92,18.08c-3-3-8.24-3.38-14.63-.95-2.55,1-4.99,2.24-7.29,3.72-2.3-1.48-4.74-2.72-7.29-3.72-6.39-2.43-11.59-2.1-14.63.95s-3.38,8.24-.95,14.63c1,2.55,2.24,4.99,3.72,7.29-1.48,2.3-2.72,4.74-3.72,7.29-2.43,6.39-2.1,11.59.95,14.63,1.89,1.77,4.42,2.7,7,2.56,2.64-.07,5.24-.62,7.68-1.61,2.53-1,4.95-2.25,7.24-3.72,2.3,1.48,4.74,2.72,7.29,3.72,2.45,1,5.06,1.54,7.71,1.61,2.58.14,5.11-.79,7-2.56,3-3,3.38-8.24.95-14.63-1.02-2.55-2.3-4.99-3.8-7.29,1.48-2.3,2.72-4.74,3.72-7.29,2.43-6.39,2.13-11.58-.95-14.63ZM20.87,31.29c-1.81-4.76-1.8-8.54,0-10.38,1.14-.99,2.62-1.49,4.13-1.39,2.15.07,4.26.53,6.25,1.35,1.76.69,3.46,1.51,5.09,2.47-4.93,3.7-9.3,8.07-13,13-.95-1.62-1.78-3.3-2.47-5.05ZM40,25.65c2.78,1.96,5.38,4.16,7.78,6.57,2.41,2.4,4.61,5,6.57,7.78-1.96,2.78-4.16,5.38-6.57,7.78-2.4,2.41-5,4.61-7.78,6.57-2.78-1.96-5.38-4.16-7.78-6.57-2.41-2.4-4.61-5-6.57-7.78,3.95-5.55,8.8-10.4,14.35-14.35ZM31.29,59.13c-4.76,1.81-8.54,1.8-10.38,0s-1.85-5.62,0-10.38c.69-1.76,1.51-3.46,2.47-5.09,3.7,4.93,8.07,9.3,13,13-1.63.96-3.33,1.78-5.09,2.47ZM59.13,48.71c1.81,4.76,1.8,8.54,0,10.38s-5.62,1.85-10.38,0c-1.76-.69-3.46-1.51-5.09-2.47,2.48-1.85,4.81-3.87,7-6.06,2.19-2.19,4.21-4.52,6.06-7,.94,1.65,1.74,3.37,2.41,5.15ZM59.13,31.29c-.69,1.76-1.51,3.46-2.47,5.09-3.7-4.93-8.07-9.3-13-13,1.63-.96,3.33-1.78,5.09-2.47,1.98-.83,4.1-1.3,6.25-1.39,1.51-.1,2.99.4,4.13,1.39,1.8,1.84,1.81,5.62,0,10.38Z"/>
  <path d="M40,47c3.87,0,7-3.13,7-7s-3.13-7-7-7-7,3.13-7,7,3.13,7,7,7ZM40,37c1.66,0,3,1.34,3,3s-1.34,3-3,3-3-1.34-3-3,1.34-3,3-3Z"/>
  <text class="st0" transform="translate(0 95)"><tspan x="0" y="0">Created by Weltenraser</tspan></text>
  <text class="st0" transform="translate(0 100)"><tspan x="0" y="0">from the Noun Project</tspan></text>
</svg>