<?xml version="1.0" encoding="UTF-8"?>
<svg id="Layer_1" xmlns="http://www.w3.org/2000/svg" version="1.1" viewBox="0 0 80 80">
  <!-- Generator: Adobe Illustrator 29.8.1, SVG Export Plug-In . SVG Version: 2.1.1 Build 2)  -->
  <path d="M32,65.79l8-4.5,8,4.5,10-5.63v-9l8-4.5v-11.33l-8-4.53v-9l-10-5.59-8,4.5-8-4.5-10,5.62v9l-8,4.5v11.34l8,4.5v9l10,5.62ZM26,57.79v-6.62l6-3.37,6,3.38v6.66l-6,3.38-6-3.43ZM40,34.29l6,3.38v6.66l-6,3.38-6-3.37v-6.67l6-3.38ZM54,57.83l-6,3.38-6-3.37v-6.67l6-3.37,6,3.38v6.65ZM62,44.33l-6,3.38-6-3.37v-6.67l6-3.39,6,3.38v6.67ZM54,24.17v6.64l-6,3.4-6-3.37v-6.67l6-3.37,6,3.37ZM26,24.17l6-3.37,6,3.38v6.66l-6,3.37-6-3.37v-6.67ZM18,37.67l6-3.37,6,3.38v6.66l-6,3.38-6-3.37v-6.68Z"/>
</svg>