<?xml version="1.0" encoding="UTF-8"?>
<svg id="Layer_1" xmlns="http://www.w3.org/2000/svg" version="1.1" viewBox="0 0 80 80">
  <!-- Generator: Adobe Illustrator 29.8.1, SVG Export Plug-In . SVG Version: 2.1.1 Build 2)  -->
  <path d="M21.86,50.14c-4.42,0-7.99,3.6-7.99,8.01,0,4.42,3.6,7.99,8.01,7.99,4.42,0,7.99-3.6,7.99-8.01,0-1.45-.4-2.88-1.15-4.13l5-5c3.76,2.6,8.75,2.6,12.51,0l5,5c-2.24,3.81-.98,8.71,2.83,10.95,3.81,2.24,8.71.98,10.95-2.83,2.24-3.81.98-8.71-2.83-10.95-2.51-1.48-5.62-1.48-8.12,0l-5-5c2.6-3.76,2.6-8.74,0-12.5l5-5c3.79,2.27,8.7,1.04,10.97-2.75,2.27-3.79,1.04-8.7-2.75-10.97-3.79-2.27-8.7-1.04-10.97,2.75-1.49,2.5-1.52,5.61-.06,8.12l-5,5c-3.74-2.56-8.68-2.56-12.42,0l-5-5c2.24-3.81.98-8.71-2.83-10.95-3.81-2.24-8.71-.98-10.95,2.83-2.24,3.81-.98,8.71,2.83,10.95,2.51,1.48,5.62,1.48,8.12,0l5,5c-2.56,3.74-2.56,8.68,0,12.42l-5,5c-1.27-.68-2.7-1-4.14-.93ZM24.69,61c-1.56,1.56-4.1,1.56-5.66,0s-1.56-4.1,0-5.66c1.56-1.56,4.09-1.56,5.65,0,1.56,1.56,1.56,4.09,0,5.66h0ZM61,55.31c1.56,1.56,1.56,4.09,0,5.66-1.56,1.56-4.09,1.56-5.66,0-1.56-1.56-1.56-4.09,0-5.66.75-.75,1.77-1.17,2.83-1.17,1.06,0,2.08.42,2.83,1.17ZM55.31,19c1.56-1.56,4.1-1.56,5.66,0,1.56,1.56,1.56,4.1,0,5.66-1.56,1.56-4.09,1.56-5.65,0-1.56-1.56-1.56-4.09,0-5.66,0,0,0,0,0,0ZM45,35.05c2.73,2.73,2.73,7.17,0,9.9-2.73,2.73-7.17,2.73-9.9,0-2.73-2.73-2.73-7.17,0-9.9,1.3-1.3,3.06-2.04,4.9-2.05,1.87-.01,3.67.72,5,2.05ZM21.86,25.86c-2.21,0-4-1.79-4-4,0-2.21,1.79-4,4-4,2.21,0,4,1.79,4,4,0,1.06-.42,2.08-1.17,2.83-.75.75-1.77,1.17-2.83,1.17Z"/>
</svg>