<?xml version="1.0" encoding="UTF-8"?>
<svg id="Layer_1" xmlns="http://www.w3.org/2000/svg" version="1.1" viewBox="0 0 80 80">
  <!-- Generator: Adobe Illustrator 29.8.1, SVG Export Plug-In . SVG Version: 2.1.1 Build 2)  -->
  <defs>
    <style>
      .st0 {
        font-family: HelveticaNeue-Bold, 'Helvetica Neue';
        font-size: 5px;
        font-weight: 700;
        isolation: isolate;
      }
    </style>
  </defs>
  <path d="M66.85,24.5c-1.92-3.31-6.64-4.5-13.3-3.5-1,.16-2,.37-3,.62-2.12-7.32-5.69-12.62-10.55-12.62s-8.43,5.3-10.59,12.65c-1-.24-2-.46-3-.62-6.66-1.08-11.38.15-13.3,3.46s-.62,8,3.65,13.25c.61.75,1.29,1.5,2,2.25-.71.75-1.4,1.5-2,2.25-4.27,5.23-5.56,9.93-3.65,13.25,1.46,2.53,4.56,3.85,8.9,3.85,1.49,0,2.97-.11,4.44-.34,1-.16,2-.37,3-.61,2.12,7.31,5.69,12.61,10.55,12.61s8.43-5.3,10.59-12.65c1,.24,2,.46,3,.61,1.45.24,2.92.37,4.39.38,4.35,0,7.44-1.32,8.9-3.85,1.91-3.32.62-8-3.65-13.25-.61-.75-1.29-1.5-2-2.25.71-.75,1.4-1.5,2-2.25,4.23-5.22,5.53-9.92,3.62-13.24ZM54.19,25c4.69-.76,8.21-.18,9.19,1.52.98,1.7-.23,5-3.28,8.72-.54.66-1.14,1.33-1.78,2-1.81-1.61-3.7-3.12-5.68-4.52-.23-2.41-.6-4.8-1.09-7.17.9-.24,1.79-.43,2.64-.55ZM44.5,47.79c-1.5.86-3,1.66-4.5,2.39-1.5-.73-3-1.53-4.5-2.39s-2.94-1.79-4.33-2.7c-.11-1.62-.17-3.32-.17-5.09s.06-3.47.17-5.09c1.39-.91,2.83-1.84,4.33-2.7s3-1.66,4.5-2.39c1.5.73,3,1.53,4.5,2.39,1.5.86,2.94,1.77,4.33,2.71.11,1.62.17,3.32.17,5.09s-.06,3.47-.17,5.09c-1.39.9-2.83,1.83-4.33,2.69ZM48.29,50.18c-.17,1.11-.35,2.18-.56,3.2-1-.33-2-.71-3-1.12.61-.33,1.21-.65,1.82-1s1.15-.72,1.74-1.08ZM35.29,52.26c-1,.41-2,.78-3,1.12-.21-1.02-.4-2.09-.56-3.2.59.36,1.18.73,1.79,1.08s1.19.67,1.8,1h-.03ZM27,42.07c-.86-.68-1.69-1.37-2.48-2.07.78-.7,1.62-1.39,2.48-2.07v4.14ZM31.68,29.82c.17-1.12.35-2.19.56-3.2,1,.33,2,.71,3,1.12-.61.33-1.21.66-1.82,1s-1.12.72-1.71,1.08h-.03ZM44.68,27.74c1-.41,2-.79,3-1.12.21,1.02.4,2.09.56,3.2-.59-.36-1.18-.73-1.79-1.08s-1.16-.67-1.77-1ZM53,37.93c.86.68,1.69,1.37,2.48,2.07-.78.7-1.62,1.39-2.48,2.07v-4.14ZM40,13c2.19,0,4.89,3.5,6.76,9.74-2.3.76-4.56,1.65-6.76,2.66-2.2-1.01-4.46-1.9-6.76-2.66,1.87-6.24,4.57-9.74,6.76-9.74ZM16.62,26.5c.69-1.2,2.67-1.84,5.43-1.84,1.26,0,2.52.12,3.76.33.85.14,1.74.33,2.64.54-.49,2.37-.86,4.76-1.09,7.17-1.98,1.4-3.87,2.91-5.68,4.52-.63-.67-1.23-1.33-1.78-2-3.05-3.74-4.28-7-3.28-8.72ZM25.81,55c-4.68.76-8.21.18-9.19-1.51s.28-5,3.28-8.72c.54-.66,1.15-1.33,1.78-2,1.81,1.61,3.7,3.12,5.68,4.52.23,2.41.6,4.8,1.09,7.17-.9.23-1.79.42-2.64.54ZM40,67c-2.19,0-4.89-3.5-6.76-9.74,2.3-.76,4.56-1.65,6.76-2.66,2.2,1.01,4.46,1.9,6.76,2.66-1.87,6.24-4.57,9.74-6.76,9.74ZM63.38,53.5c-1,1.7-4.5,2.28-9.19,1.51-.85-.14-1.74-.33-2.64-.54.49-2.37.86-4.76,1.09-7.17,1.98-1.4,3.87-2.91,5.68-4.52.63.67,1.23,1.33,1.78,2,3,3.68,4.26,7.02,3.28,8.72Z"/>
  <path d="M46.32,43l.1-.22.1-.24.06-.16.09-.25c0-.08,0-.17.07-.25v-.14c0-.09,0-.18.07-.27s0-.16,0-.25v-1.11c0-.08.19-.11.19-.11v-1.47c0-.09,0-.18-.07-.27v-.14c0-.09,0-.17-.07-.26l-.09-.24-.06-.16-.1-.24-.1-.21-.09-.19-.11-.22-.05-.1-.26-.09-.13-.21-.11-.2-.13-.19-.17-.21-.1-.13-.16-.19-.19-.2-.12-.08-.19-.19-.2-.17-.13-.11-.21-.16-.16-.12-.18-.12-.23-.13-.09-.06h-.1l-.23-.12-.17-.14-.21-.1-.25-.1-.16-.06-.23-.08-.26-.07h-.15l-.25-.06h-2.97l-.28.07h-.11l-.27.08-.26.09h-.12l-.26.1-.22.1-.16.08-.24.12h-.1l-.1.06-.19.12-.19.12-.19.14-.2.16-.14.11-.2.17-.18.18-.11.11-.19.2-.16.19-.11.13-.17.21-.13.19-.11.17-.13.21-.06.09-.05.1-.11.22-.09.19-.1.21-.1.24-.06.16-.09.24c0,.08,0,.17-.07.25v.14c0,.09,0,.18-.07.27s0,.16,0,.24v1.11c0,.08-.2.22-.2.22v1.46c0,.08,0,.18.07.27v.14c0,.08,0,.17.07.25l.09.25.06.16.1.24.1.22.09.19.11.21.05.1.05.08.15.23.15.22.17.24.1.13.12.15.33.36h0l.17.16.31.28.15.12h0l.15.12.2.14.22.14.25.16h.06c.23.13.47.25.71.35l.17.06c.2.08.41.15.62.21l.26.07.57.11h.24c.55.07,1.1.07,1.65,0h.24l.57-.11.26-.07c.21-.06.42-.13.62-.21l.17-.06c.24-.1.48-.22.71-.35h.06l.25-.16.22-.14.2-.14.15-.12h0l.15-.12.31-.28.17-.16h0l.33-.36.12-.15.1-.13.17-.24.15-.22.14-.23.05-.08.05-.1.11-.21.48-.18ZM43,40.18v.59l-.05.17-.07.18-.09.21-.08.15-.1.16-.13.18-.12.14-.14.15-.13.12-.14.12-.19.14-.14.08-.16.09-.22.1-.16.06-.2.06h-1.55l-.33-.05-.16-.06-.21-.1-.16-.08-.15-.09-.19-.14-.13-.12-.14-.13-.11-.11-.11-.14-.13-.19-.1-.16-.08-.15-.09-.21-.07-.15-.05-.17v-1.54l.05-.17.07-.18.09-.21.08-.15.06-.1c.1-.16.21-.3.34-.44l.12-.13h0c.15-.14.31-.26.48-.36l.17-.09.28-.12.23-.09.17-.05c.46-.12.95-.12,1.41,0l.17.05.23.09.28.12.17.09c.17.1.33.22.48.36h0l.12.13c.13.14.24.28.34.44l.06.11.08.15.1.21.07.18.05.17v.77c0,.06.18.05.18.11Z"/>
  <text class="st0" transform="translate(0 95)"><tspan x="0" y="0">Created by Weltenraser</tspan></text>
  <text class="st0" transform="translate(0 100)"><tspan x="0" y="0">from the Noun Project</tspan></text>
</svg>