<?xml version="1.0" encoding="UTF-8"?>
<svg id="Layer_1" xmlns="http://www.w3.org/2000/svg" version="1.1" viewBox="0 0 80 80">
  <!-- Generator: Adobe Illustrator 29.8.1, SVG Export Plug-In . SVG Version: 2.1.1 Build 2)  -->
  <defs>
    <style>
      .st0 {
        font-family: HelveticaNeue-Bold, 'Helvetica Neue';
        font-size: 5px;
        font-weight: 700;
        isolation: isolate;
      }
    </style>
  </defs>
  <path d="M68,66v-25c0-1.1-.9-2-2-2h-3v-5c0-1.1-.9-2-2-2h-3v-8.55c1.92-1.09,2.6-3.53,1.52-5.45s-3.53-2.6-5.45-1.52c-.63.36-1.16.88-1.52,1.52h-5.92l-2.84,4-7.6-12.55-6.51,8.55h-2.23c-1.09-1.92-3.53-2.6-5.45-1.52-1.92,1.09-2.6,3.53-1.52,5.45.36.63.88,1.16,1.52,1.52v8.55h-3c-1.1,0-2,.9-2,2v5h-3c-1.1,0-2,.9-2,2v25c0,1.1.9,2,2,2h52c1.1,0,2-.9,2-2ZM59,39h-6v-3h6v3ZM26,23.45c.6-.35,1.1-.85,1.45-1.45h4.21l4.15-5.45,7.73,12.77,5.16-7.32h3.85c.35.6.85,1.1,1.45,1.45v8.55h-3c-1.1,0-2,.9-2,2v5h-18v-5c0-1.1-.9-2-2-2h-3v-8.55ZM21,36h6v3h-6v-3ZM64,64H16v-21h48v21Z"/>
  <path d="M35,55h-13c-1.1,0-2,.9-2,2s.9,2,2,2h13c1.1,0,2-.9,2-2s-.9-2-2-2Z"/>
  <path d="M51,47c-5.52,0-10,4.48-10,10,0,1.1.9,2,2,2h16c1.1,0,2-.9,2-2,0-5.52-4.48-10-10-10ZM45.34,55c1.11-3.12,4.54-4.76,7.66-3.65,1.7.6,3.05,1.95,3.65,3.65h-11.31Z"/>
  <circle cx="22.5" cy="49.5" r="2.5"/>
  <circle cx="29.5" cy="49.5" r="2.5"/>
  <text class="st0" transform="translate(0 95)"><tspan x="0" y="0">Created by Weltenraser</tspan></text>
  <text class="st0" transform="translate(0 100)"><tspan x="0" y="0">from the Noun Project</tspan></text>
</svg>