<?xml version="1.0" encoding="UTF-8"?>
<svg id="Layer_1" xmlns="http://www.w3.org/2000/svg" version="1.1" viewBox="0 0 80 80">
  <!-- Generator: Adobe Illustrator 29.8.1, SVG Export Plug-In . SVG Version: 2.1.1 Build 2)  -->
  <defs>
    <style>
      .st0 {
        font-family: HelveticaNeue-Bold, 'Helvetica Neue';
        font-size: 5px;
        font-weight: 700;
        isolation: isolate;
      }
    </style>
  </defs>
  <path d="M12.53,57.54l9.59.33.33,9.59c.04,1.08.92,1.93,2,1.93h.07c1.1-.04,1.97-.96,1.93-2.07h0s-.32-9.32-.32-9.32l8.39.29h.83c.57,0,1.14,0,1.7-.08,1.5,1.62,4.03,1.72,5.65.22.52-.48.9-1.09,1.11-1.76,1.7-.68,3.32-1.57,4.81-2.64.61.35,1.3.54,2,.54,2.21,0,4-1.79,4-4,0-.7-.19-1.39-.54-2,1.07-1.5,1.96-3.12,2.64-4.83,2.11-.65,3.29-2.89,2.64-5-.21-.67-.59-1.27-1.1-1.75.06-.85.08-1.69.05-2.54l-.31-8.32,9.31.32c1.1.04,2.03-.82,2.07-1.93,0,0,0,0,0,0,.04-1.1-.82-2.03-1.93-2.07h0s-9.59-.33-9.59-.33l-.33-9.59c-.04-1.1-.96-1.97-2.07-1.93h0c-1.1.04-1.97.96-1.93,2.07,0,0,0,0,0,0l.34,9.33-8.39-.29c-.85-.03-1.69-.01-2.54.05-1.5-1.62-4.04-1.71-5.65-.21-.51.48-.89,1.08-1.1,1.75-1.71.68-3.33,1.57-4.83,2.64-.61-.35-1.3-.54-2-.54-2.21,0-4,1.79-4,4,0,.7.19,1.39.54,2-1.07,1.5-1.96,3.12-2.64,4.83-2.11.65-3.29,2.89-2.64,5,.21.67.59,1.27,1.1,1.75-.06.85-.08,1.69-.05,2.54l.33,8.35-9.31-.32c-1.1-.04-2.03.83-2.07,1.93s.83,2.03,1.93,2.07h-.02ZM27.24,37.14c.58-1.33,1.31-2.6,2.18-3.76.34,0,.67-.06,1-.15l16.34,16.35c-.09.33-.14.66-.15,1-1.16.87-2.43,1.6-3.76,2.18-.99-1.03-2.47-1.44-3.85-1.05l-10.71-10.71c.4-1.39,0-2.88-1.05-3.88v.02ZM40,28.44c.34,0,.67-.06,1-.15l10.71,10.71c-.4,1.39,0,2.88,1.05,3.88-.58,1.33-1.31,2.6-2.18,3.76-.34,0-.67.06-1,.15l-16.34-16.37c.09-.33.14-.66.15-1,1.16-.87,2.43-1.6,3.76-2.18.75.77,1.78,1.2,2.85,1.2ZM45.34,25.69l8.66.31.3,8.67v1.24l-10.2-10.2c.41,0,.82-.03,1.24-.02ZM25.69,45.34v-1.24l10.21,10.19h-1.24l-8.66-.29-.31-8.66Z"/>
  <text class="st0" transform="translate(0 95)"><tspan x="0" y="0">Created by Weltenraser</tspan></text>
  <text class="st0" transform="translate(0 100)"><tspan x="0" y="0">from the Noun Project</tspan></text>
</svg>