<?xml version="1.0" encoding="UTF-8"?>
<svg id="Layer_1" xmlns="http://www.w3.org/2000/svg" version="1.1" viewBox="0 0 80 80">
  <!-- Generator: Adobe Illustrator 29.8.1, SVG Export Plug-In . SVG Version: 2.1.1 Build 2)  -->
  <path d="M42,19c0-1.1-.9-2-2-2-12.7,0-23,10.3-23,23,0,1.1.9,2,2,2s2-.9,2-2c0-10.49,8.51-19,19-19,1.1,0,2-.9,2-2Z"/>
  <path d="M40,10c-16.57,0-30,13.43-30,30s13.43,30,30,30,30-13.43,30-30-13.43-30-30-30ZM40,66c-14.36,0-26-11.64-26-26s11.64-26,26-26,26,11.64,26,26-11.64,26-26,26Z"/>
  <circle cx="35" cy="37" r="2"/>
  <circle cx="46" cy="53" r="2"/>
  <circle cx="43" cy="31" r="4"/>
  <path d="M33.74,45.91c-.92-.61-2.16-.36-2.77.55-.61.92-.36,2.16.55,2.77.03.02.07.04.1.06.79.42,1.38,1.14,1.62,2,.13,1.05-.11,2.11-.67,3-.6.93-.33,2.17.59,2.77.9.59,2.11.35,2.73-.54,1.17-1.8,1.62-3.97,1.26-6.08-.47-1.92-1.7-3.56-3.41-4.54h0Z"/>
  <path d="M56.36,43c-.3-.09-.47-.41-.38-.71.02-.07.05-.13.1-.19.2-.24.17-.6-.08-.8-.15-.13-.36-.16-.55-.1-.3.1-.62-.06-.72-.36-.02-.07-.03-.14-.03-.21,0-.31-.27-.56-.58-.56-.16,0-.31.08-.42.2-.17.26-.53.33-.79.16-.06-.04-.12-.1-.16-.16-.17-.27-.52-.34-.79-.17-.17.11-.27.29-.26.49,0,.31-.25.57-.56.58-.07,0-.14,0-.21-.04-.29-.12-.62.03-.74.32-.07.19-.04.4.08.56.19.25.13.61-.12.8-.06.04-.12.07-.19.09-.3.08-.48.4-.4.7.05.19.21.35.4.4.3.09.47.41.38.71-.02.07-.05.13-.1.19-.2.24-.17.6.08.8.15.13.36.16.55.1.3-.1.62.06.72.36.02.07.03.14.03.21,0,.31.27.56.58.56.16,0,.31-.08.42-.2h0c.17-.26.53-.33.79-.16.06.04.12.1.16.16.17.27.52.34.79.17.17-.11.27-.29.26-.49,0-.31.25-.57.56-.58.07,0,.14,0,.21.04.31.08.61-.11.69-.42.04-.16,0-.32-.08-.45-.19-.25-.13-.61.12-.8.06-.04.12-.07.19-.09.31-.06.51-.35.46-.66-.04-.21-.2-.39-.41-.45Z"/>
</svg>