<?xml version="1.0" encoding="UTF-8"?>
<svg id="Layer_1" xmlns="http://www.w3.org/2000/svg" version="1.1" viewBox="0 0 80 80">
  <!-- Generator: Adobe Illustrator 29.8.1, SVG Export Plug-In . SVG Version: 2.1.1 Build 2)  -->
  <path d="M40,5C20.67,5,5,20.67,5,40s15.67,35,35,35,35-15.67,35-35S59.33,5,40,5ZM40,71c-17.12,0-31-13.88-31-31s13.88-31,31-31,31,13.88,31,31-13.88,31-31,31Z"/>
  <path d="M31.61,40c0,4.63,3.76,8.39,8.39,8.39s8.39-3.76,8.39-8.39-3.76-8.39-8.39-8.39h0c-4.63,0-8.38,3.76-8.39,8.39ZM40,35.61c2.42,0,4.39,1.97,4.39,4.39s-1.97,4.39-4.39,4.39-4.39-1.97-4.39-4.39h0c0-2.42,1.97-4.39,4.39-4.39Z"/>
  <path d="M30.5,40c0-3.39,1.82-6.52,4.75-8.22l1.73-1-9.65-16.73-1.73,1c-8.91,5.16-14.4,14.66-14.43,24.95v2h19.33v-2ZM15.26,38c.62-7.42,4.53-14.17,10.65-18.41l5.69,9.86c-2.67,2.13-4.43,5.18-4.95,8.55h-11.39Z"/>
  <path d="M54.4,15.06l-1.73-1-9.67,16.72,1.73,1c2.94,1.7,4.76,4.83,4.77,8.22v2h19.33v-2c-.03-10.29-5.53-19.79-14.43-24.94ZM53.35,38c-.51-3.37-2.28-6.42-4.94-8.55l5.69-9.86c6.12,4.24,10.02,10.99,10.64,18.41h-11.39Z"/>
  <path d="M44.74,48.22c-2.94,1.67-6.54,1.67-9.48,0l-1.73-1-9.66,16.72,1.73,1c8.91,5.18,19.9,5.18,28.81,0l1.73-1-9.66-16.73-1.74,1.01ZM29.37,62.41l5.69-9.86c3.18,1.24,6.7,1.24,9.88,0l5.69,9.86c-6.73,3.16-14.53,3.16-21.26,0Z"/>
</svg>