<?xml version="1.0" encoding="UTF-8"?>
<svg id="Layer_1" xmlns="http://www.w3.org/2000/svg" version="1.1" viewBox="0 0 80 80">
  <!-- Generator: Adobe Illustrator 29.8.1, SVG Export Plug-In . SVG Version: 2.1.1 Build 2)  -->
  <path d="M40,30c-5.52,0-10,4.48-10,10s4.48,10,10,10,10-4.48,10-10-4.48-10-10-10ZM40,46c-3.31,0-6-2.69-6-6s2.69-6,6-6,6,2.69,6,6-2.69,6-6,6Z"/>
  <path d="M40,16c-13.25-.02-24.01,10.72-24.03,23.97-.02,13.25,10.72,24.01,23.97,24.03,4.43,0,8.78-1.22,12.56-3.53,3.02,1.94,7.03,1.06,8.97-1.95,1.45-2.26,1.36-5.18-.23-7.35,6.17-11.73,1.66-26.24-10.07-32.41-3.44-1.81-7.28-2.76-11.17-2.76ZM20,40c.05-11.05,9.04-19.96,20.08-19.92s19.96,9.04,19.92,20.08c-.01,2.99-.7,5.94-2,8.63-3.42-1.08-7.06.82-8.14,4.23-.45,1.41-.4,2.94.14,4.32-9.57,5.52-21.8,2.25-27.32-7.32-1.76-3.05-2.68-6.51-2.68-10.03ZM56,57.5c-1.38,0-2.5-1.12-2.5-2.5s1.12-2.5,2.5-2.5,2.5,1.12,2.5,2.5-1.12,2.5-2.5,2.5Z"/>
</svg>