<?xml version="1.0" encoding="UTF-8"?>
<svg id="Layer_1" xmlns="http://www.w3.org/2000/svg" version="1.1" viewBox="0 0 80 80">
  <!-- Generator: Adobe Illustrator 29.8.1, SVG Export Plug-In . SVG Version: 2.1.1 Build 2)  -->
  <defs>
    <style>
      .st0 {
        font-family: HelveticaNeue-Bold, 'Helvetica Neue';
        font-size: 5px;
        font-weight: 700;
        isolation: isolate;
      }
    </style>
  </defs>
  <path d="M40,73c12.7-.02,22.98-10.33,22.96-23.04-.01-9.2-5.51-17.5-13.96-21.11v-11.85h1.5c1.1,0,2-.9,2-2s-.9-2-2-2h-21c-1.1,0-2,.9-2,2s.9,2,2,2h1.5v11.85c-11.68,4.99-17.1,18.51-12.11,30.19,3.61,8.46,11.92,13.95,21.11,13.96ZM33.67,32.11l1.33-.48v-14.63h10v14.63l1.33.47c4.44,1.58,8.14,4.75,10.37,8.9H23.3c2.24-4.15,5.93-7.31,10.37-8.89ZM21.69,45h36.62c.45,1.63.69,3.31.69,5,0,10.49-8.51,19-19,19s-19-8.51-19-19c0-1.69.24-3.37.69-5Z"/>
  <circle cx="30" cy="51" r="3"/>
  <circle cx="40" cy="57" r="4"/>
  <text class="st0" transform="translate(0 95)"><tspan x="0" y="0">Created by Weltenraser</tspan></text>
  <text class="st0" transform="translate(0 100)"><tspan x="0" y="0">from the Noun Project</tspan></text>
</svg>