<?xml version="1.0" encoding="UTF-8"?>
<svg id="Layer_1" xmlns="http://www.w3.org/2000/svg" version="1.1" viewBox="0 0 80 80">
  <!-- Generator: Adobe Illustrator 29.8.1, SVG Export Plug-In . SVG Version: 2.1.1 Build 2)  -->
  <defs>
    <style>
      .st0 {
        font-family: HelveticaNeue-Bold, 'Helvetica Neue';
        font-size: 5px;
        font-weight: 700;
        isolation: isolate;
      }
    </style>
  </defs>
  <path d="M68,20c-.01-4.42-3.6-7.99-8.02-7.98-3.63.01-6.8,2.46-7.72,5.98h-4.52c-1.13-4.27-5.51-6.82-9.78-5.69-2.78.73-4.96,2.91-5.69,5.69h-4.53c-1.1-4.28-5.46-6.86-9.74-5.76-4.28,1.1-6.86,5.46-5.76,9.74.73,2.82,2.93,5.03,5.76,5.76v4.53c-4.27,1.13-6.82,5.51-5.69,9.78.73,2.78,2.91,4.96,5.69,5.69v4.53c-4.28,1.1-6.86,5.46-5.76,9.74,1.1,4.28,5.46,6.86,9.74,5.76,2.83-.73,5.04-2.94,5.76-5.77h4.53c1.13,4.27,5.51,6.82,9.78,5.69,2.78-.73,4.96-2.91,5.69-5.69h4.53c1.1,4.28,5.46,6.86,9.74,5.76,4.28-1.1,6.86-5.46,5.76-9.74-.73-2.83-2.94-5.04-5.77-5.76v-4.52c4.27-1.13,6.82-5.51,5.69-9.78-.73-2.78-2.91-4.96-5.69-5.69v-4.53c3.53-.91,6-4.09,6-7.74ZM60,16c2.21,0,4,1.79,4,4s-1.79,4-4,4-4-1.79-4-4,1.79-4,4-4ZM47.74,22h4.53c.73,2.81,2.92,5.01,5.73,5.74v4.53c-2.81.73-5.01,2.92-5.74,5.73h-4.52c-.73-2.81-2.93-5.01-5.74-5.74v-4.52c2.81-.73,5.01-2.93,5.74-5.74ZM40,44c-2.21,0-4-1.79-4-4s1.79-4,4-4,4,1.79,4,4-1.79,4-4,4ZM40,16c2.21,0,4,1.79,4,4s-1.79,4-4,4-4-1.79-4-4,1.79-4,4-4ZM27.74,22h4.53c.73,2.81,2.92,5.01,5.73,5.74v4.53c-2.81.73-5.01,2.92-5.74,5.73h-4.52c-.73-2.81-2.93-5.01-5.74-5.74v-4.52c2.81-.73,5.01-2.93,5.74-5.74ZM16,20c0-2.21,1.79-4,4-4s4,1.79,4,4-1.79,4-4,4-4-1.79-4-4ZM16,40c0-2.21,1.79-4,4-4s4,1.79,4,4-1.79,4-4,4-4-1.79-4-4ZM20,64c-2.21,0-4-1.79-4-4s1.79-4,4-4,4,1.79,4,4-1.79,4-4,4ZM32.26,58h-4.52c-.73-2.81-2.93-5.01-5.74-5.74v-4.52c2.81-.73,5.01-2.93,5.74-5.74h4.53c.73,2.81,2.92,5.01,5.73,5.74v4.53c-2.81.73-5.01,2.92-5.74,5.73ZM40,64c-2.21,0-4-1.79-4-4s1.79-4,4-4,4,1.79,4,4-1.79,4-4,4ZM52.26,58h-4.52c-.73-2.81-2.93-5.01-5.74-5.74v-4.52c2.81-.73,5.01-2.93,5.74-5.74h4.53c.73,2.81,2.92,5.01,5.73,5.74v4.53c-2.81.73-5.01,2.92-5.74,5.73ZM64,60c0,2.21-1.79,4-4,4s-4-1.79-4-4,1.79-4,4-4,4,1.79,4,4ZM64,40c0,2.21-1.79,4-4,4s-4-1.79-4-4,1.79-4,4-4,4,1.79,4,4Z"/>
  <text class="st0" transform="translate(0 95)"><tspan x="0" y="0">Created by Weltenraser</tspan></text>
  <text class="st0" transform="translate(0 100)"><tspan x="0" y="0">from the Noun Project</tspan></text>
</svg>