<?xml version="1.0" encoding="UTF-8"?>
<svg id="Layer_1" xmlns="http://www.w3.org/2000/svg" version="1.1" viewBox="0 0 80 80">
  <!-- Generator: Adobe Illustrator 29.8.1, SVG Export Plug-In . SVG Version: 2.1.1 Build 2)  -->
  <path d="M9,47.24l9,5.05v11.25l8,4.46c0,2.21,1.79,4,4,4s4-1.79,4-4l6-3.38,9,5.07c.96.55,2.19.22,2.74-.75.55-.96.22-2.19-.74-2.74l-9-5.05v-8.86l6-3.36c1.24.71,2.76.71,4,0l1,.55,7,3.94,11-6.18c.96-.55,1.3-1.78.75-2.74-.55-.96-1.78-1.3-2.75-.75l-9,5.07-6-3.38c0-1.41-.76-2.72-2-3.4v-9l-10-5.58v-8.92l8-4.54,6,3.38c0,2.21,1.81,3.99,4.02,3.98,2.21,0,3.99-1.81,3.98-4.02s-1.81-3.99-4.02-3.98c-.7,0-1.38.19-1.98.54l-8-4.44-10,5.62-10-5.62-8,4.49c-1.79-1.3-4.29-.9-5.59.88-1.3,1.79-.9,4.29.88,5.59.22.16.46.3.71.41v9l8,4.5c0,1.41.76,2.72,2,3.4v6.63l-8,4.5-9-5.07c-.96-.55-2.19-.22-2.75.75-.55.96-.22,2.19.75,2.74v-.04ZM32,37.7c1.24-.68,2-1.99,2-3.4l6-3.38,8,4.5v6.63c-1.24.68-2,1.99-2,3.4l-6,3.38-8-4.5v-6.63ZM38,18.55v8.91l-6,3.36c-1.24-.71-2.76-.71-4,0l-6-3.36v-6.64c1.24-.68,2-1.99,2-3.4l6-3.42,8,4.55ZM30,47.79l8,4.5v8.91l-6,3.36c-1.24-.71-2.76-.71-4,0l-6-3.36v-8.91l8-4.5Z"/>
</svg>