<?xml version="1.0" encoding="UTF-8"?>
<svg id="Layer_1" xmlns="http://www.w3.org/2000/svg" version="1.1" viewBox="0 0 80 80">
  <!-- Generator: Adobe Illustrator 29.8.1, SVG Export Plug-In . SVG Version: 2.1.1 Build 2)  -->
  <defs>
    <style>
      .st0 {
        font-family: HelveticaNeue-Bold, 'Helvetica Neue';
        font-size: 5px;
        font-weight: 700;
        isolation: isolate;
      }
    </style>
  </defs>
  <path d="M26,67h28c3.87,0,7-3.13,7-7V20c0-3.87-3.13-7-7-7h-28c-3.87,0-7,3.13-7,7v40c0,3.87,3.13,7,7,7ZM23,20c0-1.66,1.34-3,3-3h28c1.66,0,3,1.34,3,3v40c0,1.66-1.34,3-3,3h-28c-1.66,0-3-1.34-3-3h0V20Z"/>
  <path d="M27,30h26c1.1,0,2-.9,2-2v-7c0-1.1-.9-2-2-2h-26c-1.1,0-2,.9-2,2v7c0,1.1.9,2,2,2ZM29,23h22v3h-22v-3Z"/>
  <path d="M31,34h-3c-1.1,0-2,.9-2,2s.9,2,2,2h3c1.1,0,2-.9,2-2s-.9-2-2-2Z"/>
  <path d="M31,41h-3c-1.1,0-2,.9-2,2s.9,2,2,2h3c1.1,0,2-.9,2-2s-.9-2-2-2Z"/>
  <path d="M31,48h-3c-1.1,0-2,.9-2,2s.9,2,2,2h3c1.1,0,2-.9,2-2s-.9-2-2-2Z"/>
  <path d="M31,55h-3c-1.1,0-2,.9-2,2s.9,2,2,2h3c1.1,0,2-.9,2-2s-.9-2-2-2Z"/>
  <path d="M41.5,34h-3c-1.1,0-2,.9-2,2s.9,2,2,2h3c1.1,0,2-.9,2-2s-.9-2-2-2Z"/>
  <path d="M41.5,41h-3c-1.1,0-2,.9-2,2s.9,2,2,2h3c1.1,0,2-.9,2-2s-.9-2-2-2Z"/>
  <path d="M41.5,48h-3c-1.1,0-2,.9-2,2s.9,2,2,2h3c1.1,0,2-.9,2-2s-.9-2-2-2Z"/>
  <path d="M41.5,55h-3c-1.1,0-2,.9-2,2s.9,2,2,2h3c1.1,0,2-.9,2-2s-.9-2-2-2Z"/>
  <path d="M52,34h-3c-1.1,0-2,.9-2,2s.9,2,2,2h3c1.1,0,2-.9,2-2s-.9-2-2-2Z"/>
  <path d="M52,41h-3c-1.1,0-2,.9-2,2s.9,2,2,2h3c1.1,0,2-.9,2-2s-.9-2-2-2Z"/>
  <path d="M52,48h-3c-1.1,0-2,.9-2,2s.9,2,2,2h3c1.1,0,2-.9,2-2s-.9-2-2-2Z"/>
  <path d="M52,55h-3c-1.1,0-2,.9-2,2s.9,2,2,2h3c1.1,0,2-.9,2-2s-.9-2-2-2Z"/>
  <text class="st0" transform="translate(0 95)"><tspan x="0" y="0">Created by Weltenraser</tspan></text>
  <text class="st0" transform="translate(0 100)"><tspan x="0" y="0">from the Noun Project</tspan></text>
</svg>