<?xml version="1.0" encoding="UTF-8"?>
<svg id="Layer_1" xmlns="http://www.w3.org/2000/svg" version="1.1" viewBox="0 0 80 80">
  <!-- Generator: Adobe Illustrator 29.8.1, SVG Export Plug-In . SVG Version: 2.1.1 Build 2)  -->
  <path d="M10.51,54.95h.05c1.09,0,1.97-.87,2-1.95.16-6.07,5.21-10.87,11.28-10.71.86.02,1.71.15,2.55.37,1.3.36,2.53.97,3.61,1.78.19,3.11,1.83,5.95,4.42,7.67.15,1.34.05,2.7-.29,4-1.58,5.87-7.61,9.34-13.48,7.76-.82-.22-1.6-.53-2.35-.93-.97-.53-2.19-.17-2.72.81-.53.97-.17,2.19.81,2.72h0c7.29,3.94,16.39,1.22,20.33-6.07.55-1.02.98-2.1,1.28-3.22.3-1.15.47-2.32.49-3.51.97.16,1.97.16,2.94,0,.05,1.19.24,2.37.57,3.51,2.15,8,10.38,12.74,18.38,10.59,1.13-.3,2.23-.74,3.26-1.3.97-.53,1.33-1.74.81-2.72-.53-.97-1.74-1.33-2.72-.81h0c-5.29,2.93-11.95,1.03-14.89-4.26-1.11-2-1.56-4.3-1.3-6.57.55-.37,1.06-.78,1.53-1.25h0c1.72-1.71,2.77-4,2.93-6.42,1.09-.81,2.33-1.41,3.64-1.77,5.87-1.55,11.89,1.96,13.44,7.83.22.82.34,1.65.36,2.5.03,1.08.91,1.95,2,1.95h.05c1.1-.03,1.98-.94,1.95-2.05h0c-.22-8.28-7.1-14.82-15.39-14.6-1.18.03-2.35.2-3.48.5-1.14.31-2.24.75-3.27,1.32-.36-.92-.86-1.78-1.47-2.55,7.06-4.33,9.28-13.56,4.96-20.63-.61-1-1.35-1.93-2.18-2.76-.84-.83-1.77-1.56-2.78-2.18-.95-.56-2.18-.25-2.74.7-.55.93-.26,2.13.65,2.71.73.45,1.4.98,2,1.59,4.3,4.29,4.3,11.26,0,15.56h0c-.96.96-2.1,1.73-3.35,2.26-2.79-1.38-6.06-1.38-8.85,0-1.25-.54-2.39-1.3-3.35-2.26-4.3-4.29-4.3-11.26,0-15.56h0c.6-.61,1.27-1.14,2-1.59.87-.69,1.01-1.94.33-2.81-.56-.7-1.52-.95-2.35-.6-1,.61-1.93,1.34-2.77,2.17-5.85,5.86-5.85,15.36.02,21.21.83.83,1.76,1.56,2.76,2.18-.61.77-1.11,1.63-1.47,2.55-1.03-.57-2.13-1.01-3.27-1.32-8-2.15-16.23,2.6-18.37,10.6-.31,1.14-.48,2.32-.51,3.5-.03,1.1.83,2.03,1.94,2.06h.01ZM44.24,39.55c2.34,2.34,2.34,6.14,0,8.49-2.34,2.34-6.14,2.34-8.49,0-2.34-2.34-2.34-6.14,0-8.49,1.13-1.12,2.65-1.76,4.25-1.75,1.59,0,3.11.63,4.24,1.75h0Z"/>
</svg>