<?xml version="1.0" encoding="UTF-8"?>
<svg id="Layer_1" xmlns="http://www.w3.org/2000/svg" version="1.1" viewBox="0 0 80 80">
  <!-- Generator: Adobe Illustrator 29.8.1, SVG Export Plug-In . SVG Version: 2.1.1 Build 2)  -->
  <defs>
    <style>
      .st0 {
        font-family: HelveticaNeue-Bold, 'Helvetica Neue';
        font-size: 5px;
        font-weight: 700;
        isolation: isolate;
      }
    </style>
  </defs>
  <path d="M40,30.64c-5.05,0-9.15,4.1-9.15,9.15s4.1,9.15,9.15,9.15,9.15-4.1,9.15-9.15c0-5.05-4.1-9.14-9.15-9.15ZM40,44.94c-2.84,0-5.15-2.31-5.15-5.15s2.31-5.15,5.15-5.15,5.15,2.31,5.15,5.15c0,2.84-2.31,5.14-5.15,5.14h0Z"/>
  <path d="M29.13,39.78c.01-3.88,2.08-7.46,5.44-9.4l1.73-1-10.57-18.31-1.73,1c-9.88,5.74-15.97,16.29-16,27.71v2h21.13v-2ZM12.05,37.78c.64-8.56,5.16-16.36,12.26-21.18l6.6,11.4c-3.08,2.39-5.1,5.89-5.64,9.75l-13.22.03Z"/>
  <path d="M56,12.08l-1.73-1-10.57,18.3,1.73,1c3.36,1.94,5.43,5.52,5.44,9.4v2h21.13v-2c-.03-11.42-6.12-21.97-16-27.7ZM54.73,37.78c-.53-3.87-2.55-7.38-5.64-9.78l6.6-11.44c7.11,4.83,11.63,12.65,12.26,21.22h-13.22Z"/>
  <path d="M34.57,49.19l-1.73-1-10.57,18.3,1.73,1c9.89,5.75,22.11,5.75,32,0l1.73-1-10.57-18.3-1.73,1c-3.37,1.91-7.49,1.91-10.86,0ZM52.23,65c-7.73,3.72-16.73,3.72-24.46,0l6.6-11.44c3.61,1.46,7.65,1.46,11.26,0l6.6,11.44Z"/>
  <text class="st0" transform="translate(0 95)"><tspan x="0" y="0">Created by Weltenraser</tspan></text>
  <text class="st0" transform="translate(0 100)"><tspan x="0" y="0">from the Noun Project</tspan></text>
</svg>